# xmcd CD database file
#
# Track frame offsets:
#	150
#	24446
#	45197
#	67419
#	87325
#	106637
#	127532
#	142950
#	163464
#	181522
#	203681
#	224433
#
# Disc length: 3361 seconds
#
# Revision: 0
# Processed by: cddbd v1.5.1PL0 Copyright (c) Steve Scherf et al.
# Submitted via: CDex 1.50beta8
#
DISCID=990d1f0c
DTITLE=DISCOVERY/JANIS/ivory - とらいあんぐるハート'S Sound stage final The Grand Finale
DYEAR=2004
DGENRE=Game
TTITLE0=Trust You're Truth〜明日を守る約束〜
TTITLE1=My Gentle Days
TTITLE2=ゆっくりOn My Way
TTITLE3=背中ごしのMy Heart
TTITLE4=日々是闘い、それ宿命
TTITLE5=雫ひとひら
TTITLE6=Day in the life〜抱きしめてゆくもの〜
TTITLE7=Blessing For You
TTITLE8=Blessing For You〜Silent Sings〜
TTITLE9=Trust You're Truth〜明日を守る約束〜 <Technical-Soul MIX>
TTITLE10=inside of a wilderness<ver SEENA>
TTITLE11=Sweet Songs ever with you <Forever&ever MIX>
EXTD=YEAR: 2004
EXTT0=
EXTT1=
EXTT2=
EXTT3=
EXTT4=
EXTT5=
EXTT6=
EXTT7=
EXTT8=
EXTT9=
EXTT10=
EXTT11=
PLAYORDER=
